<?xml version="1.0" ?><svg id="object" viewBox="0 0 32 32" xmlns="http://www.w3.org/2000/svg"><defs><style>.cls-1{fill:#798bc6;}.cls-2{fill:#667dba;}.cls-3{fill:#ff9797;}.cls-4{fill:#e47979;}.cls-5{fill:#ffd599;}.cls-6{fill:#e4ab7b;}.cls-7{fill:#d6b5b0;}.cls-8{fill:#bf9e99;}</style></defs><title/><path class="cls-1" d="M14.5,12.5H13.45a1,1,0,0,1,0-2H14.5A8.51,8.51,0,0,0,23,2a1,1,0,0,1,2,0A10.51,10.51,0,0,1,14.5,12.5Z"/><path class="cls-2" d="M13.45,11.25H14.5A8.51,8.51,0,0,0,23,2.75a1,1,0,0,1,1-1,1,1,0,0,1,1,.85c0-.2,0-.4,0-.6a1,1,0,0,0-2,0,8.51,8.51,0,0,1-8.5,8.5H13.45a1,1,0,0,0-.92,1.38A1,1,0,0,1,13.45,11.25Z"/><path class="cls-1" d="M8.88,10.48a1,1,0,0,1-.38-.07A1,1,0,0,1,8,9.11,13,13,0,0,1,20,1h4a1,1,0,0,1,0,2H20A11,11,0,0,0,9.8,9.86,1,1,0,0,1,8.88,10.48Z"/><path class="cls-2" d="M20,3h4a1,1,0,0,0,1-.89,1,1,0,0,0-.42-.1h-4a13,13,0,0,0-12,8.11,1.09,1.09,0,0,0,0,.26l0,0a1,1,0,0,0,.38.07,1,1,0,0,0,.92-.62A11,11,0,0,1,20,3Z"/><path class="cls-3" d="M8,7A7,7,0,0,0,4,19.74V28a1,1,0,0,0,.45.83l3,2a1,1,0,0,0,1.1,0l3-2A1,1,0,0,0,12,28V26a1,1,0,0,0-.4-.8l-.93-.7.93-.7A1,1,0,0,0,12,23V19.74A7,7,0,0,0,8,7ZM8,17a3,3,0,1,1,3-3A3,3,0,0,1,8,17Z"/><path class="cls-4" d="M8,7a5.85,5.85,0,0,0-.73,0,7,7,0,0,1,3.27,12.7V23a1,1,0,0,1-.4.8l-.93.7.93.7a1,1,0,0,1,.4.8v2a1,1,0,0,1-.45.83L7.27,30.71l.18.12a1,1,0,0,0,1.1,0l3-2A1,1,0,0,0,12,28V26a1,1,0,0,0-.4-.8l-.93-.7.93-.7A1,1,0,0,0,12,23V19.74A7,7,0,0,0,8,7Z"/><path class="cls-5" d="M30.45,4.11l-6-3a1,1,0,0,0-.9,0l-6,3A1,1,0,0,0,17,5V21a1,1,0,0,0,1,1H30a1,1,0,0,0,1-1V5A1,1,0,0,0,30.45,4.11Z"/><path class="cls-6" d="M30.45,4.11l-.95-.48V19.42a1,1,0,0,1-1,1H17V21a1,1,0,0,0,1,1H30a1,1,0,0,0,1-1V5A1,1,0,0,0,30.45,4.11Z"/><path class="cls-7" d="M17,15v6a1,1,0,0,0,1,1H30a1,1,0,0,0,1-1V15Z"/><path class="cls-7" d="M17,15v6a1,1,0,0,0,1,1H30a1,1,0,0,0,1-1V15Z"/><path class="cls-8" d="M29.5,19.42a1,1,0,0,1-1,1H17V21a1,1,0,0,0,1,1H30a1,1,0,0,0,1-1V15H29.5Z"/></svg>